<svg width="0" height="0" class="hidden">
  <symbol fill="none" xmlns="http://www.w3.org/2000/svg" viewBox="0 0 16 16" id="linkedin">
    <g id="linkedin 1" clip-path="url(#clip0_654084_693)">
      <path id="Vector" d="M15.996 16V15.9993H16V10.1313C16 7.26062 15.382 5.04929 12.026 5.04929C10.4126 5.04929 9.32997 5.93462 8.88797 6.77395H8.8413V5.31729H5.6593V15.9993H8.97264V10.71C8.97264 9.31729 9.23664 7.97062 10.9613 7.97062C12.6606 7.97062 12.686 9.55995 12.686 10.7993V16H15.996Z" fill="#F4F4FD"></path>
      <path id="Vector_2" d="M0.264038 5.31787H3.58137V15.9999H0.264038V5.31787Z" fill="#F4F4FD"></path>
      <path id="Vector_3" d="M1.92133 -9.15527e-05C0.860667 -9.15527e-05 0 0.860575 0 1.92124C0 2.98191 0.860667 3.86058 1.92133 3.86058C2.982 3.86058 3.84267 2.98191 3.84267 1.92124C3.842 0.860575 2.98133 -9.15527e-05 1.92133 -9.15527e-05V-9.15527e-05Z" fill="#F4F4FD"></path>
    </g>
    <defs>
      <clipPath id="clip0_654084_693">
        <rect width="16" height="16" fill="white"></rect>
      </clipPath>
    </defs>
  </symbol>
  <symbol fill="none" xmlns="http://www.w3.org/2000/svg" viewBox="0 0 16 16" id="facebook">
    <g id="facebook 1" clip-path="url(#clip0_654084_689)">
      <path id="Vector" d="M10.6646 2.65658H12.1253V0.112575C11.8733 0.0779084 11.0066 -9.15527e-05 9.9973 -9.15527e-05C7.8913 -9.15527e-05 6.44863 1.32458 6.44863 3.75924V5.99991H4.12463V8.84391H6.44863V15.9999H9.29797V8.84458H11.528L11.882 6.00058H9.2973V4.04124C9.29797 3.21924 9.5193 2.65658 10.6646 2.65658Z" fill="#F4F4FD"></path>
    </g>
    <defs>
      <clipPath id="clip0_654084_689">
        <rect width="16" height="16" fill="white"></rect>
      </clipPath>
    </defs>
  </symbol>
  <symbol fill="none" xmlns="http://www.w3.org/2000/svg" viewBox="0 0 16 16" id="twitter">
    <g id="twitter 1" clip-path="url(#clip0_654084_683)">
      <g id="Group">
        <g id="Group_2">
          <path id="Vector" d="M16 3.03891C15.405 3.29991 14.771 3.47291 14.11 3.55691C14.79 3.15091 15.309 2.51291 15.553 1.74391C14.919 2.12191 14.219 2.38891 13.473 2.53791C12.871 1.89691 12.013 1.49991 11.077 1.49991C9.261 1.49991 7.799 2.97391 7.799 4.78091C7.799 5.04091 7.821 5.29091 7.875 5.52891C5.148 5.39591 2.735 4.08891 1.114 2.09791C0.831 2.58891 0.665 3.15091 0.665 3.75591C0.665 4.89191 1.25 5.89891 2.122 6.48191C1.595 6.47191 1.078 6.31891 0.64 6.07791C0.64 6.08791 0.64 6.10091 0.64 6.11391C0.64 7.70791 1.777 9.03191 3.268 9.33691C3.001 9.40991 2.71 9.44491 2.408 9.44491C2.198 9.44491 1.986 9.43291 1.787 9.38891C2.212 10.6879 3.418 11.6429 4.852 11.6739C3.736 12.5469 2.319 13.0729 0.785 13.0729C0.516 13.0729 0.258 13.0609 0 13.0279C1.453 13.9649 3.175 14.4999 5.032 14.4999C11.068 14.4999 14.368 9.49991 14.368 5.16591C14.368 5.02091 14.363 4.88091 14.356 4.74191C15.007 4.27991 15.554 3.70291 16 3.03891Z" fill="#F4F4FD"></path>
        </g>
      </g>
    </g>
    <defs>
      <clipPath id="clip0_654084_683">
        <rect width="16" height="16" fill="white"></rect>
      </clipPath>
    </defs>
  </symbol>
  <symbol fill="none" xmlns="http://www.w3.org/2000/svg" viewBox="0 0 16 16" id="instagram">
    <rect width="16" height="16" fill="#E5E5E5"></rect>
    <g id="Helper Components">
      <rect x="-148" y="-1124" width="1237" height="2106" rx="24" fill="white"></rect>
      <g id="Frame 13">
        <g id="Frame 20">
          <g id="Team Card 1" filter="url(#filter0_ddd_296641_536)">
            <path d="M-28 -368H236V56C236 58.2091 234.209 60 232 60H-24C-26.2091 60 -28 58.2091 -28 56V-368Z" fill="white"></path>
            <g id="Card Content">
              <g id="Traling Icons">
                <g id="Ellipse">
                  <path id="Ellipse_2" d="M28 7.99997C28 13.5228 25.7614 18.5228 22.1421 22.1421C18.5228 25.7614 13.5228 28 8 28C2.47715 28 -2.52285 25.7614 -6.14214 22.1421C-9.76142 18.5228 -12 13.5228 -12 7.99997C-12 2.47712 -9.76142 -2.52288 -6.14214 -6.14217C-2.52285 -9.76145 2.47715 -12 8 -12C13.5228 -12 18.5228 -9.76145 22.1421 -6.14217C25.7614 -2.52288 28 2.47712 28 7.99997Z" fill="#4D5AE5"></path>
                  <g id="instagram 2" clip-path="url(#clip0_296641_536)">
                    <path id="Vector" d="M15.9843 4.70395C15.9468 3.85381 15.8093 3.26935 15.6124 2.7629C15.4092 2.22532 15.0967 1.74402 14.6872 1.34392C14.2871 0.937592 13.8026 0.621856 13.2713 0.421866C12.7619 0.224928 12.1805 0.08745 11.3303 0.049967C10.4738 0.00930969 10.2019 -9.15527e-05 8.02963 -9.15527e-05C5.85733 -9.15527e-05 5.58543 0.00930969 4.73212 0.0467926C3.88197 0.0842755 3.29751 0.221876 2.79119 0.418691C2.25348 0.621856 1.77219 0.934417 1.37209 1.34392C0.965758 1.74402 0.650145 2.22849 0.450033 2.75985C0.253096 3.26935 0.115618 3.85064 0.0781347 4.70078C0.0374774 5.55727 0.0280762 5.82917 0.0280762 8.00147C0.0280762 10.1738 0.0374774 10.4457 0.0749603 11.299C0.112443 12.1491 0.250043 12.7336 0.446981 13.24C0.650145 13.7776 0.965758 14.2589 1.37209 14.659C1.77219 15.0654 2.25666 15.3811 2.78801 15.5811C3.29751 15.778 3.8788 15.9155 4.72906 15.953C5.58226 15.9906 5.85428 15.9999 8.02658 15.9999C10.1989 15.9999 10.4708 15.9906 11.3241 15.953C12.1742 15.9155 12.7587 15.778 13.265 15.5811C14.3403 15.1653 15.1904 14.3152 15.6062 13.24C15.803 12.7305 15.9406 12.1491 15.9781 11.299C16.0156 10.4457 16.025 10.1738 16.025 8.00147C16.025 5.82917 16.0218 5.55727 15.9843 4.70395ZM14.5435 11.2365C14.509 12.0179 14.3778 12.4398 14.2684 12.7211C13.9995 13.4182 13.4463 13.9714 12.7493 14.2402C12.468 14.3496 12.043 14.4809 11.2646 14.5152C10.4207 14.5528 10.1676 14.5621 8.03281 14.5621C5.89799 14.5621 5.64172 14.5528 4.80085 14.5152C4.01945 14.4809 3.5975 14.3496 3.31619 14.2402C2.96932 14.112 2.65359 13.9089 2.39731 13.6432C2.13163 13.3837 1.92847 13.0712 1.80027 12.7243C1.69087 12.443 1.55962 12.0179 1.52532 11.2397C1.48771 10.3957 1.47843 10.1425 1.47843 8.0077C1.47843 5.87288 1.48771 5.61661 1.52532 4.77587C1.55962 3.99446 1.69087 3.57251 1.80027 3.2912C1.92847 2.94421 2.13163 2.6286 2.40049 2.3722C2.65981 2.10652 2.97237 1.90336 3.31937 1.77528C3.60067 1.66588 4.0258 1.53463 4.80403 1.5002C5.64794 1.46272 5.90117 1.45332 8.03586 1.45332C10.1738 1.45332 10.4269 1.46272 11.2678 1.5002C12.0492 1.53463 12.4712 1.66588 12.7525 1.77528C13.0993 1.90336 13.4151 2.10652 13.6714 2.3722C13.937 2.63165 14.1402 2.94421 14.2684 3.2912C14.3778 3.57251 14.509 3.99752 14.5435 4.77587C14.581 5.61978 14.5904 5.87288 14.5904 8.0077C14.5904 10.1425 14.581 10.3926 14.5435 11.2365Z" fill="#F4F4FD"></path>
                    <path id="Vector_2" d="M8.02967 3.89127C5.76055 3.89127 3.91949 5.7322 3.91949 8.00144C3.91949 10.2707 5.76055 12.1116 8.02967 12.1116C10.2989 12.1116 12.1398 10.2707 12.1398 8.00144C12.1398 5.7322 10.2989 3.89127 8.02967 3.89127ZM8.02967 10.6676C6.55758 10.6676 5.3635 9.47365 5.3635 8.00144C5.3635 6.52923 6.55758 5.33527 8.02967 5.33527C9.50188 5.33527 10.6958 6.52923 10.6958 8.00144C10.6958 9.47365 9.50188 10.6676 8.02967 10.6676Z" fill="#F4F4FD"></path>
                    <path id="Vector_3" d="M13.262 3.7288C13.262 4.25869 12.8324 4.68834 12.3024 4.68834C11.7725 4.68834 11.3428 4.25869 11.3428 3.7288C11.3428 3.19878 11.7725 2.76926 12.3024 2.76926C12.8324 2.76926 13.262 3.19878 13.262 3.7288Z" fill="#F4F4FD"></path>
                  </g>
                </g>
              </g>
            </g>
          </g>
        </g>
      </g>
    </g>
    <defs>
      <filter id="filter0_ddd_296641_536" x="-34" y="-373" width="276" height="440" filterUnits="userSpaceOnUse" color-interpolation-filters="sRGB">
        <feFlood flood-opacity="0" result="BackgroundImageFix"></feFlood>
        <feColorMatrix in="SourceAlpha" type="matrix" values="0 0 0 0 0 0 0 0 0 0 0 0 0 0 0 0 0 0 127 0" result="hardAlpha"></feColorMatrix>
        <feOffset dy="2"></feOffset>
        <feGaussianBlur stdDeviation="0.5"></feGaussianBlur>
        <feColorMatrix type="matrix" values="0 0 0 0 0.180392 0 0 0 0 0.184314 0 0 0 0 0.258824 0 0 0 0.08 0"></feColorMatrix>
        <feBlend mode="normal" in2="BackgroundImageFix" result="effect1_dropShadow_296641_536"></feBlend>
        <feColorMatrix in="SourceAlpha" type="matrix" values="0 0 0 0 0 0 0 0 0 0 0 0 0 0 0 0 0 0 127 0" result="hardAlpha"></feColorMatrix>
        <feOffset dy="1"></feOffset>
        <feGaussianBlur stdDeviation="0.5"></feGaussianBlur>
        <feColorMatrix type="matrix" values="0 0 0 0 0.180392 0 0 0 0 0.184314 0 0 0 0 0.258824 0 0 0 0.16 0"></feColorMatrix>
        <feBlend mode="normal" in2="effect1_dropShadow_296641_536" result="effect2_dropShadow_296641_536"></feBlend>
        <feColorMatrix in="SourceAlpha" type="matrix" values="0 0 0 0 0 0 0 0 0 0 0 0 0 0 0 0 0 0 127 0" result="hardAlpha"></feColorMatrix>
        <feOffset dy="1"></feOffset>
        <feGaussianBlur stdDeviation="3"></feGaussianBlur>
        <feColorMatrix type="matrix" values="0 0 0 0 0.180392 0 0 0 0 0.184314 0 0 0 0 0.258824 0 0 0 0.08 0"></feColorMatrix>
        <feBlend mode="normal" in2="effect2_dropShadow_296641_536" result="effect3_dropShadow_296641_536"></feBlend>
        <feBlend mode="normal" in="SourceGraphic" in2="effect3_dropShadow_296641_536" result="shape"></feBlend>
      </filter>
      <clipPath id="clip0_296641_536">
        <rect width="16" height="16" fill="white"></rect>
      </clipPath>
    </defs>
  </symbol>
</svg>